classDiagram
    class SupportsRead {
      +read()
    }
    class SupportsItems {
      +items()
    }
    class BaseAdapter {
      +__init__()
      +send()
      +close()
    }
    class HTTPAdapter {
      +__init__()
      +__getstate__()
      +__setstate__()
      +init_poolmanager()
      +proxy_manager_for()
      +cert_verify()
      +build_response()
      +build_connection_pool_key_attributes()
      +get_connection_with_tls_context()
      +get_connection()
      +close()
      +request_url()
      +add_headers()
      +proxy_headers()
      +send()
    }
    class AuthBase {
      +__call__()
    }
    class HTTPBasicAuth {
      +__init__()
      +__init__()
      +__init__()
      +__eq__()
      +__ne__()
      +__call__()
    }
    class HTTPProxyAuth {
      +__call__()
    }
    class HTTPDigestAuth {
      +__init__()
      +__init__()
      +__init__()
      +init_per_thread_state()
      +build_digest_header()
      +handle_redirect()
      +handle_401()
      +__call__()
      +__eq__()
      +__ne__()
    }
    class MockRequest {
      +__init__()
      +get_type()
      +get_host()
      +get_origin_req_host()
      +get_full_url()
      +is_unverifiable()
      +has_header()
      +get_header()
      +add_header()
      +add_unredirected_header()
      +get_new_headers()
      +unverifiable()
      +origin_req_host()
      +host()
    }
    class MockResponse {
      +__init__()
      +info()
      +getheaders()
    }
    class CookieConflictError {
    }
    class RequestsCookieJar {
      +get()
      +set()
      +iterkeys()
      +keys()
      +itervalues()
      +values()
      +iteritems()
      +items()
      +list_domains()
      +list_paths()
      +multiple_domains()
      +get_dict()
      +__iter__()
      +__contains__()
      +__getitem__()
      +__setitem__()
      +__delitem__()
      +set_cookie()
      +update()
      +_find()
      +_find_no_duplicates()
      +__getstate__()
      +__setstate__()
      +copy()
      +get_policy()
    }
    class RequestException {
      +__init__()
    }
    class InvalidJSONError {
    }
    class JSONDecodeError {
      +__init__()
      +__reduce__()
    }
    class HTTPError {
    }
    class ConnectionError {
    }
    class ProxyError {
    }
    class SSLError {
    }
    class Timeout {
    }
    class ConnectTimeout {
    }
    class ReadTimeout {
    }
    class URLRequired {
    }
    class TooManyRedirects {
    }
    class MissingSchema {
    }
    class InvalidSchema {
    }
    class InvalidURL {
    }
    class InvalidHeader {
    }
    class InvalidProxyURL {
    }
    class ChunkedEncodingError {
    }
    class ContentDecodingError {
    }
    class StreamConsumedError {
    }
    class RetryError {
    }
    class UnrewindableBodyError {
    }
    class RequestsWarning {
    }
    class FileModeWarning {
    }
    class RequestsDependencyWarning {
    }
    class RequestEncodingMixin {
      +path_url()
      +_encode_params()
      +_encode_params()
      +_encode_params()
      +_encode_params()
      +_encode_params()
      +_encode_files()
    }
    class RequestHooksMixin {
      +register_hook()
      +deregister_hook()
    }
    class Request {
      +__init__()
      +__repr__()
      +prepare()
    }
    class PreparedRequest {
      +__init__()
      +prepare()
      +__repr__()
      +copy()
      +prepare_method()
      +_get_idna_encoded_host()
      +prepare_url()
      +prepare_headers()
      +prepare_body()
      +prepare_content_length()
      +prepare_auth()
      +prepare_cookies()
      +prepare_hooks()
    }
    class Response {
      +__init__()
      +__enter__()
      +__exit__()
      +__getstate__()
      +__setstate__()
      +__repr__()
      +__bool__()
      +__nonzero__()
      +__iter__()
      +ok()
      +is_redirect()
      +is_permanent_redirect()
      +next()
      +apparent_encoding()
      +iter_content()
      +iter_content()
      +iter_content()
      +iter_lines()
      +iter_lines()
      +iter_lines()
      +content()
      +text()
      +json()
      +links()
      +raise_for_status()
      +close()
    }
    class SessionRedirectMixin {
      +send()
      +get_redirect_target()
      +should_strip_auth()
      +resolve_redirects()
      +rebuild_auth()
      +rebuild_proxies()
      +rebuild_method()
    }
    class Session {
      +__init__()
      +__enter__()
      +__exit__()
      +prepare_request()
      +request()
      +get()
      +options()
      +head()
      +post()
      +put()
      +patch()
      +delete()
      +send()
      +merge_environment_settings()
      +get_adapter()
      +close()
      +mount()
      +__getstate__()
      +__setstate__()
    }
    class CaseInsensitiveDict {
      +__init__()
      +__setitem__()
      +__getitem__()
      +__delitem__()
      +__iter__()
      +__len__()
      +lower_items()
      +__eq__()
      +copy()
      +__repr__()
    }
    class LookupDict {
      +__init__()
      +__repr__()
      +__getattr__()
      +__getitem__()
      +get()
      +get()
      +get()
    }
    BaseAdapter <|-- HTTPAdapter
    AuthBase <|-- HTTPBasicAuth
    HTTPBasicAuth <|-- HTTPProxyAuth
    AuthBase <|-- HTTPDigestAuth
    RequestException <|-- InvalidJSONError
    InvalidJSONError <|-- JSONDecodeError
    RequestException <|-- HTTPError
    RequestException <|-- ConnectionError
    ConnectionError <|-- ProxyError
    ConnectionError <|-- SSLError
    RequestException <|-- Timeout
    ConnectionError <|-- ConnectTimeout
    Timeout <|-- ConnectTimeout
    Timeout <|-- ReadTimeout
    RequestException <|-- URLRequired
    RequestException <|-- TooManyRedirects
    RequestException <|-- MissingSchema
    RequestException <|-- InvalidSchema
    RequestException <|-- InvalidURL
    RequestException <|-- InvalidHeader
    InvalidURL <|-- InvalidProxyURL
    RequestException <|-- ChunkedEncodingError
    RequestException <|-- ContentDecodingError
    RequestException <|-- StreamConsumedError
    RequestException <|-- RetryError
    RequestException <|-- UnrewindableBodyError
    RequestsWarning <|-- FileModeWarning
    RequestsWarning <|-- RequestsDependencyWarning
    RequestHooksMixin <|-- Request
    RequestEncodingMixin <|-- PreparedRequest
    RequestHooksMixin <|-- PreparedRequest
    SessionRedirectMixin <|-- Session
    HTTPAdapter *-- CaseInsensitiveDict
    HTTPAdapter *-- ConnectTimeout
    HTTPAdapter *-- ConnectionError
    HTTPAdapter *-- InvalidHeader
    HTTPAdapter *-- InvalidProxyURL
    HTTPAdapter *-- InvalidURL
    HTTPAdapter *-- ProxyError
    HTTPAdapter *-- ReadTimeout
    HTTPAdapter *-- Response
    HTTPAdapter *-- RetryError
    HTTPAdapter *-- SSLError
    RequestsCookieJar *-- CookieConflictError
    Request *-- PreparedRequest
    PreparedRequest *-- CaseInsensitiveDict
    PreparedRequest *-- HTTPBasicAuth
    PreparedRequest *-- InvalidJSONError
    PreparedRequest *-- InvalidURL
    PreparedRequest *-- MissingSchema
    Response *-- CaseInsensitiveDict
    Response *-- ChunkedEncodingError
    Response *-- ConnectionError
    Response *-- ContentDecodingError
    Response *-- HTTPAdapter
    Response *-- HTTPError
    Response *-- PreparedRequest
    Response *-- RequestsCookieJar
    Response *-- StreamConsumedError
    SessionRedirectMixin *-- RequestsCookieJar
    SessionRedirectMixin *-- TooManyRedirects
    Session *-- HTTPAdapter
    Session *-- InvalidSchema
    Session *-- PreparedRequest
    Session *-- Request
    Session *-- RequestsCookieJar
